<mxfile host="app.diagrams.net" modified="2021-08-17T05:13:12.449Z" agent="5.0 (Windows NT 10.0; Win64; x64) AppleWebKit/537.36 (KHTML, like Gecko) Chrome/92.0.4515.131 Safari/537.36" etag="OLUd8O1QQ91Qk3G6VYCQ" version="14.9.6" type="github" pages="3">
  <diagram id="r3Dg0n4C1B-ofx8djAy4" name="Login">
    <mxGraphModel dx="918" dy="485" grid="1" gridSize="10" guides="1" tooltips="1" connect="1" arrows="1" fold="1" page="1" pageScale="1" pageWidth="850" pageHeight="1100" math="0" shadow="0">
      <root>
        <mxCell id="0" />
        <mxCell id="1" parent="0" />
        <mxCell id="xNMv4Y4VzVO1RZJvGmYp-1" value="LOGIN" style="ellipse;whiteSpace=wrap;html=1;fontStyle=1" vertex="1" parent="1">
          <mxGeometry x="320" width="200" height="80" as="geometry" />
        </mxCell>
        <mxCell id="1aZwSwlUhjiTqQcFroLU-1" value="" style="rounded=1;whiteSpace=wrap;html=1;" vertex="1" parent="1">
          <mxGeometry x="40" y="120" width="120" height="200" as="geometry" />
        </mxCell>
        <mxCell id="01A0ODxserq6QhIa1XZS-1" value="&lt;br&gt;&lt;br&gt;&lt;br&gt;&lt;br&gt;&lt;br&gt;&lt;br&gt;&lt;br&gt;&lt;br&gt;" style="rounded=0;whiteSpace=wrap;html=1;" vertex="1" parent="1">
          <mxGeometry x="45" y="130" width="110" height="180" as="geometry" />
        </mxCell>
        <mxCell id="01A0ODxserq6QhIa1XZS-2" value="Email" style="rounded=0;whiteSpace=wrap;html=1;align=left;fontSize=10;" vertex="1" parent="1">
          <mxGeometry x="50" y="215" width="100" height="10" as="geometry" />
        </mxCell>
        <mxCell id="01A0ODxserq6QhIa1XZS-3" value="Passport Number" style="rounded=0;whiteSpace=wrap;html=1;align=left;fontSize=10;" vertex="1" parent="1">
          <mxGeometry x="50" y="240" width="100" height="10" as="geometry" />
        </mxCell>
        <mxCell id="01A0ODxserq6QhIa1XZS-12" style="edgeStyle=orthogonalEdgeStyle;rounded=0;orthogonalLoop=1;jettySize=auto;html=1;exitX=1;exitY=0.5;exitDx=0;exitDy=0;entryX=0;entryY=0.5;entryDx=0;entryDy=0;fontSize=10;" edge="1" parent="1" source="01A0ODxserq6QhIa1XZS-4" target="01A0ODxserq6QhIa1XZS-10">
          <mxGeometry relative="1" as="geometry">
            <Array as="points">
              <mxPoint x="180" y="265" />
              <mxPoint x="180" y="250" />
            </Array>
          </mxGeometry>
        </mxCell>
        <mxCell id="01A0ODxserq6QhIa1XZS-4" value="&lt;b&gt;LOGIN&lt;/b&gt;" style="rounded=0;whiteSpace=wrap;html=1;fontSize=10;fillColor=#B3B3B3;" vertex="1" parent="1">
          <mxGeometry x="50" y="260" width="100" height="10" as="geometry" />
        </mxCell>
        <mxCell id="01A0ODxserq6QhIa1XZS-13" style="edgeStyle=orthogonalEdgeStyle;rounded=0;orthogonalLoop=1;jettySize=auto;html=1;exitX=1;exitY=0.5;exitDx=0;exitDy=0;entryX=0;entryY=0.5;entryDx=0;entryDy=0;fontSize=10;" edge="1" parent="1" source="01A0ODxserq6QhIa1XZS-5" target="01A0ODxserq6QhIa1XZS-11">
          <mxGeometry relative="1" as="geometry">
            <Array as="points">
              <mxPoint x="180" y="280" />
              <mxPoint x="180" y="300" />
            </Array>
          </mxGeometry>
        </mxCell>
        <mxCell id="01A0ODxserq6QhIa1XZS-5" value="&lt;font style=&quot;font-size: 5px;&quot;&gt;Already have an account? &lt;i style=&quot;font-size: 5px;&quot;&gt;&lt;font color=&quot;#ff6666&quot; style=&quot;font-size: 5px;&quot;&gt;Signup Here&lt;/font&gt;&lt;/i&gt;&lt;/font&gt;" style="text;html=1;strokeColor=none;fillColor=none;align=center;verticalAlign=middle;whiteSpace=wrap;rounded=0;fontSize=5;" vertex="1" parent="1">
          <mxGeometry x="50" y="270" width="100" height="20" as="geometry" />
        </mxCell>
        <mxCell id="01A0ODxserq6QhIa1XZS-6" value="LOGO X" style="rounded=0;whiteSpace=wrap;html=1;fontSize=10;fillColor=none;" vertex="1" parent="1">
          <mxGeometry x="70" y="150" width="60" height="40" as="geometry" />
        </mxCell>
        <mxCell id="01A0ODxserq6QhIa1XZS-10" value="JUMP to Main Page" style="rounded=1;whiteSpace=wrap;html=1;fontSize=10;fillColor=none;" vertex="1" parent="1">
          <mxGeometry x="200" y="230" width="120" height="40" as="geometry" />
        </mxCell>
        <mxCell id="01A0ODxserq6QhIa1XZS-11" value="JUMP to Registraton Process" style="rounded=1;whiteSpace=wrap;html=1;fontSize=10;fillColor=none;" vertex="1" parent="1">
          <mxGeometry x="200" y="280" width="120" height="40" as="geometry" />
        </mxCell>
      </root>
    </mxGraphModel>
  </diagram>
  <diagram id="iCIfFak7jWd-mD__vKKI" name="Registration Process">
    <mxGraphModel dx="1102" dy="582" grid="1" gridSize="10" guides="1" tooltips="1" connect="1" arrows="1" fold="1" page="1" pageScale="1" pageWidth="850" pageHeight="1100" math="0" shadow="0">
      <root>
        <mxCell id="iKrZneJ79sTKQgi1ajhJ-0" />
        <mxCell id="iKrZneJ79sTKQgi1ajhJ-1" parent="iKrZneJ79sTKQgi1ajhJ-0" />
        <mxCell id="WvX61Td6loDUCpJCRnmX-0" value="REGISTRATION PROCESS" style="ellipse;whiteSpace=wrap;html=1;fontStyle=1" vertex="1" parent="iKrZneJ79sTKQgi1ajhJ-1">
          <mxGeometry x="280" width="200" height="80" as="geometry" />
        </mxCell>
        <mxCell id="WvX61Td6loDUCpJCRnmX-1" style="edgeStyle=orthogonalEdgeStyle;rounded=0;orthogonalLoop=1;jettySize=auto;html=1;exitX=1;exitY=0.5;exitDx=0;exitDy=0;" edge="1" parent="iKrZneJ79sTKQgi1ajhJ-1" source="WvX61Td6loDUCpJCRnmX-2" target="WvX61Td6loDUCpJCRnmX-3">
          <mxGeometry relative="1" as="geometry" />
        </mxCell>
        <mxCell id="WvX61Td6loDUCpJCRnmX-2" value="AGREEMENT LETTER&lt;br&gt;..............................&lt;br&gt;................................&lt;br&gt;.............................&lt;br&gt;.........................&lt;br&gt;...................................&lt;br&gt;..........................&lt;br&gt;&lt;br&gt;&lt;br&gt;&lt;br&gt;" style="rounded=1;whiteSpace=wrap;html=1;" vertex="1" parent="iKrZneJ79sTKQgi1ajhJ-1">
          <mxGeometry x="40" y="120" width="120" height="200" as="geometry" />
        </mxCell>
        <mxCell id="WvX61Td6loDUCpJCRnmX-3" value="" style="rounded=1;whiteSpace=wrap;html=1;" vertex="1" parent="iKrZneJ79sTKQgi1ajhJ-1">
          <mxGeometry x="240" y="120" width="120" height="200" as="geometry" />
        </mxCell>
        <mxCell id="WvX61Td6loDUCpJCRnmX-4" value="" style="rounded=0;whiteSpace=wrap;html=1;" vertex="1" parent="iKrZneJ79sTKQgi1ajhJ-1">
          <mxGeometry x="50" y="280" width="20" height="20" as="geometry" />
        </mxCell>
        <mxCell id="WvX61Td6loDUCpJCRnmX-5" value="check box" style="text;html=1;strokeColor=none;fillColor=none;align=center;verticalAlign=middle;whiteSpace=wrap;rounded=0;" vertex="1" parent="iKrZneJ79sTKQgi1ajhJ-1">
          <mxGeometry x="70" y="280" width="80" height="20" as="geometry" />
        </mxCell>
        <mxCell id="WvX61Td6loDUCpJCRnmX-6" value="REGISTRATION FORM&lt;br&gt;&lt;br&gt;&lt;br&gt;&lt;br&gt;&lt;br&gt;&lt;br&gt;&lt;br&gt;&lt;br&gt;&lt;br&gt;&lt;br&gt;" style="rounded=0;whiteSpace=wrap;html=1;" vertex="1" parent="iKrZneJ79sTKQgi1ajhJ-1">
          <mxGeometry x="245" y="130" width="110" height="180" as="geometry" />
        </mxCell>
        <mxCell id="WvX61Td6loDUCpJCRnmX-7" value="" style="rounded=0;whiteSpace=wrap;html=1;" vertex="1" parent="iKrZneJ79sTKQgi1ajhJ-1">
          <mxGeometry x="252.5" y="280" width="95" height="20" as="geometry" />
        </mxCell>
      </root>
    </mxGraphModel>
  </diagram>
  <diagram id="v2tmUDuTfuWNG7_c2rp2" name="Main Page">
    <mxGraphModel dx="526" dy="450" grid="1" gridSize="10" guides="1" tooltips="1" connect="1" arrows="1" fold="1" page="1" pageScale="1" pageWidth="850" pageHeight="1100" math="0" shadow="0">
      <root>
        <mxCell id="XQHwz4AvlLXKEj5S32dJ-0" />
        <mxCell id="XQHwz4AvlLXKEj5S32dJ-1" parent="XQHwz4AvlLXKEj5S32dJ-0" />
      </root>
    </mxGraphModel>
  </diagram>
</mxfile>
